<?xml version="1.0"?>
<svg xmlns="http://www.w3.org/2000/svg" xmlns:xlink="http://www.w3.org/1999/xlink" version="1.1" id="Capa_1" x="0px" y="0px" width="512px" height="512px" viewBox="0 0 612.015 612.015" style="enable-background:new 0 0 612.015 612.015;" xml:space="preserve" class=""><g><g>
	<path d="M607.642,219.401c-4.563-6.459-12.029-10.37-19.99-10.37H474.152l-8.612-57.856c-1.758-12.01-12.01-20.8-24.078-20.8   H299.695l-12.365-28.227c-3.872-8.849-12.622-14.558-22.281-14.558H24.361c-7.032,0-13.748,3.042-18.37,8.375   c-4.622,5.294-6.716,12.326-5.768,19.338L53.24,503.189c0,0,0,0,0,0.06v0.139c0.474,3.575,1.916,6.755,3.772,9.6   c0.198,0.296,0.198,0.711,0.395,1.066c0.375,0.514,1.047,0.751,1.462,1.284c1.718,2.034,3.634,3.714,5.867,5.097   c0.849,0.572,1.62,1.105,2.469,1.521c3.141,1.422,6.519,2.469,10.133,2.469h0.059l0,0h412.834c10.231,0,19.357-6.36,22.873-15.999   l97.46-266.643C613.251,234.255,612.165,225.979,607.642,219.401z M249.089,136.321l12.385,28.167   c3.892,8.849,12.662,14.617,22.321,14.617h136.709l4.483,29.925H174.818c-10.251,0-19.377,6.38-22.894,15.98L88.203,399.409   L52.292,136.321H249.089z M473.185,475.673H112.182l79.663-217.932h360.962L473.185,475.673z" data-original="#000000" class="active-path" data-old_color="#000000" fill="#333333"/>
</g></g> </svg>
