<?xml version="1.0" encoding="iso-8859-1"?>
<!-- Generator: Adobe Illustrator 16.0.0, SVG Export Plug-In . SVG Version: 6.00 Build 0)  -->
<!DOCTYPE svg PUBLIC "-//W3C//DTD SVG 1.1//EN" "http://www.w3.org/Graphics/SVG/1.1/DTD/svg11.dtd">
<svg xmlns="http://www.w3.org/2000/svg" xmlns:xlink="http://www.w3.org/1999/xlink" version="1.1" id="Capa_1" x="0px" y="0px" width="512px" height="512px" viewBox="0 0 612 612" style="enable-background:new 0 0 612 612;" xml:space="preserve">
<g>
	<g id="Cloud_x5F_upload">
		<g>
			<path d="M334.08,259.92c-4.878-4.896-11.628-7.92-19.08-7.92s-14.202,3.024-19.08,7.92l-72,72     c-4.896,4.878-7.92,11.628-7.92,19.08c0,14.904,12.096,27,27,27c7.452,0,14.202-3.024,19.08-7.92L288,344.178v169.038     c-10.854,8.208-18,21.132-18,35.784c0,24.858,20.142,45,45,45c24.858,0,45-20.142,45-45c0-14.652-7.128-27.576-18-35.784V344.178     l25.92,25.902c4.878,4.896,11.628,7.92,19.08,7.92c14.922,0,27-12.096,27-27c0-7.452-3.024-14.202-7.902-19.08L334.08,259.92z      M540,225c0-73.08-58.086-132.426-130.572-134.766C374.814,46.296,321.282,18,261,18C160.542,18,78.624,96.426,72.576,195.372     C29.466,217.908,0,262.962,0,315c0,74.574,60.426,135,135,135h36c14.904,0,27-12.096,27-27s-12.096-27-27-27h-36     c-44.658,0-81-36.342-81-81c0-30.222,16.704-57.726,43.596-71.766l27.018-14.13l1.872-30.438C130.824,127.638,189.918,72,261,72     c41.526,0,80.154,18.828,106.02,51.642l15.553,19.746l25.128,0.81C451.602,145.62,486,181.116,486,225v35.982l33.229,13.86     C542.771,284.67,558,307.494,558,333c0,34.74-28.26,63-63,63h-36c-14.904,0-27,12.096-27,27s12.096,27,27,27h36     c64.62,0,117-52.38,117-117C612,284.328,582.282,242.64,540,225z" fill="#333333"/>
		</g>
	</g>
</g>
<g>
</g>
<g>
</g>
<g>
</g>
<g>
</g>
<g>
</g>
<g>
</g>
<g>
</g>
<g>
</g>
<g>
</g>
<g>
</g>
<g>
</g>
<g>
</g>
<g>
</g>
<g>
</g>
<g>
</g>
</svg>
