<?xml version="1.0"?>
<svg xmlns="http://www.w3.org/2000/svg" height="512px" viewBox="1 -66 511.999 511" width="512px"><g><path d="m378.742188 101.316406c-16.71875-59.585937-70.53125-100.816406-132.394532-100.816406-72.980468 0-132.882812 57.5-137.410156 129.882812-61.757812 7.339844-108.9375 60.054688-108.9375 123.675782 0 65.894531 51.195312 120.457031 116.554688 124.21875l.417968.023437 257.335938.308594c75.921875 0 137.691406-62.210937 137.691406-138.679687 0-74.949219-59.335938-136.207032-133.257812-138.613282zm-4.414063 247.296875-256.460937-.3125c-49.304688-3.050781-87.867188-44.367187-87.867188-94.242187 0-50.5625 39.152344-92.042969 89.132812-94.441406 10.953126-.523438 19.53125-9.5 19.53125-20.429688 0-59.929688 48.308594-108.6875 107.683594-108.6875 49.511719 0 92.445313 33.855469 104.40625 82.332031 2.679688 10.84375 12.328125 18.410157 23.535156 18.410157h.019532c59.382812 0 107.691406 48.757812 107.691406 108.6875 0 59.925781-48.308594 108.683593-107.671875 108.683593zm0 0" data-original="#000000" class="active-path" data-old_color="#000000" fill="#333333"/><path d="m300.636719 255.601562c16.210937-25.453124 13.230469-59.695312-8.972657-81.898437-25.664062-25.664063-67.425781-25.664063-93.09375 0-25.667968 25.667969-25.667968 67.429687 0 93.097656 12.832032 12.832031 29.691407 19.246094 46.546876 19.246094 11.820312 0 23.636718-3.164063 34.066406-9.472656l27.210937 27.207031c2.925781 2.929688 6.765625 4.394531 10.605469 4.394531 3.835938 0 7.675781-1.464843 10.605469-4.394531 5.859375-5.859375 5.859375-15.355469 0-21.210938zm-80.851563-10.015624c-13.96875-13.96875-13.96875-36.699219 0-50.667969 6.984375-6.984375 16.160156-10.476563 25.332032-10.476563 9.175781 0 18.351562 3.492188 25.335937 10.476563 13.96875 13.96875 13.96875 36.699219 0 50.667969s-36.699219 13.96875-50.667969 0zm0 0" data-original="#000000" class="active-path" data-old_color="#000000" fill="#333333"/></g> </svg>
