<?xml version="1.0" encoding="iso-8859-1"?>
<!-- Generator: Adobe Illustrator 16.0.0, SVG Export Plug-In . SVG Version: 6.00 Build 0)  -->
<!DOCTYPE svg PUBLIC "-//W3C//DTD SVG 1.1//EN" "http://www.w3.org/Graphics/SVG/1.1/DTD/svg11.dtd">
<svg version="1.1" id="Capa_1" xmlns="http://www.w3.org/2000/svg" xmlns:xlink="http://www.w3.org/1999/xlink" x="0px" y="0px"
	 width="569.858px" height="569.858px" viewBox="0 0 569.858 569.858" style="enable-background:new 0 0 569.858 569.858;"
	 xml:space="preserve">
<g>
	<path d="M155.711,569.858h258.436c21.22,0,38.433-17.203,38.433-38.441V38.441C452.579,17.212,435.376,0,414.146,0H155.711
		c-21.238,0-38.432,17.212-38.432,38.441v492.976C117.289,552.655,134.473,569.858,155.711,569.858z M284.288,546.392
		c-13.378,0-24.203-10.815-24.203-24.184c0-13.359,10.825-24.184,24.203-24.184c13.33,0,24.184,10.824,24.184,24.184
		C308.481,535.576,297.618,546.392,284.288,546.392z M169.146,74.004c0-5.843,4.733-10.576,10.586-10.576h210.366
		c5.852,0,10.585,4.733,10.585,10.576v379.517c0,5.843-4.733,10.586-10.585,10.586H179.732c-5.853,0-10.586-4.743-10.586-10.586
		V74.004z"/>
	<path d="M223.997,364.273c2.046,6.024,8.865,10.911,15.233,10.911h90.892c6.369,0,13.264-4.857,15.415-10.844l4.38-12.23
		c2.151-5.986-1.263-10.844-7.631-10.844H227.697c-6.369,0-9.869,4.886-7.812,10.91L223.997,364.273z"/>
	<path d="M244.986,221.563h31.145v64.642l-11.322-14.037c-5.709-7.077-14.698-9.295-20.101-4.944
		c-5.384,4.341-5.135,13.607,0.574,20.684l29.845,37.016c1.071,1.329,2.266,2.458,3.519,3.424c2.209,2.897,5.651,4.781,9.562,4.781
		c2.974,0,5.67-1.119,7.774-2.907c2.323-1.205,4.552-2.993,6.406-5.308l29.845-37.016c5.709-7.077,5.967-16.343,0.574-20.694
		c-5.384-4.351-14.382-2.132-20.091,4.954l-12.432,15.405v-80.65c0-6.674-5.402-12.087-12.077-12.087
		c-0.335,0-0.66,0.067-0.994,0.096c-0.822-0.163-1.674-0.258-2.554-0.258h-39.675c-7.42,0-13.445,6.015-13.445,13.445
		C231.551,215.539,237.566,221.563,244.986,221.563z"/>
</g>
<g>
</g>
<g>
</g>
<g>
</g>
<g>
</g>
<g>
</g>
<g>
</g>
<g>
</g>
<g>
</g>
<g>
</g>
<g>
</g>
<g>
</g>
<g>
</g>
<g>
</g>
<g>
</g>
<g>
</g>
</svg>
