<?xml version="1.0" encoding="iso-8859-1"?>
<!-- Generator: Adobe Illustrator 19.0.0, SVG Export Plug-In . SVG Version: 6.00 Build 0)  -->
<svg xmlns="http://www.w3.org/2000/svg" xmlns:xlink="http://www.w3.org/1999/xlink" version="1.1" id="Capa_1" x="0px" y="0px" viewBox="0 0 512 512" style="enable-background:new 0 0 512 512;" xml:space="preserve" width="512px" height="512px">
<g>
	<g>
		<path d="M202,142c-33.084,0-60,26.916-60,60v10h40v-10c0-11.028,8.972-20,20-20h8v-40H202z" fill="#333333"/>
	</g>
</g>
<g>
	<g>
		<path d="M452,142h-82V60c0-33.084-26.916-60-60-60H60C26.916,0,0,26.916,0,60v250c0,33.084,26.916,60,60,60h82v82    c0,33.084,26.916,60,60,60h250c33.084,0,60-26.916,60-60V202C512,168.916,485.084,142,452,142z M472,452c0,11.028-8.972,20-20,20    H202c-11.028,0-20-8.972-20-20V330H60c-11.028,0-20-8.972-20-20V60c0-11.028,8.972-20,20-20h250c11.028,0,20,8.972,20,20v122h122    c11.028,0,20,8.972,20,20V452z" fill="#333333"/>
	</g>
</g>
<g>
	<g>
		<rect x="142" y="251" width="40" height="40" fill="#333333"/>
	</g>
</g>
<g>
	<g>
		<rect x="250" y="142" width="40" height="40" fill="#333333"/>
	</g>
</g>
<g>
	<g>
		<path d="M330,300v10c0,11.028-8.972,20-20,20h-8v40h8c33.084,0,60-26.916,60-60v-10H330z" fill="#333333"/>
	</g>
</g>
<g>
	<g>
		<rect x="330" y="221" width="40" height="40" fill="#333333"/>
	</g>
</g>
<g>
	<g>
		<rect x="222" y="330" width="40" height="40" fill="#333333"/>
	</g>
</g>
<g>
</g>
<g>
</g>
<g>
</g>
<g>
</g>
<g>
</g>
<g>
</g>
<g>
</g>
<g>
</g>
<g>
</g>
<g>
</g>
<g>
</g>
<g>
</g>
<g>
</g>
<g>
</g>
<g>
</g>
</svg>
