<svg height="512pt" viewBox="-9 0 512 512" width="512pt" xmlns="http://www.w3.org/2000/svg"><path d="m286.910156 32.296875 27.738282 56.199219c13.878906 28.125 40.707031 47.617187 71.746093 52.128906l62.019531 9.011719c36.488282 5.300781 51.054688 50.140625 24.65625 75.875l-44.878906 43.746093c-22.460937 21.890626-32.707031 53.433594-27.40625 84.34375l10.59375 61.769532c6.234375 36.339844-31.910156 64.050781-64.542968 46.894531l-55.472657-29.164063c-27.761719-14.59375-60.925781-14.59375-88.683593 0l-55.476563 29.164063c-32.632813 17.15625-70.773437-10.554687-64.542969-46.894531l10.59375-61.769532c5.304688-30.910156-4.945312-62.453124-27.402344-84.34375l-44.878906-43.746093c-26.402344-25.734375-11.832031-70.574219 24.652344-75.875l62.019531-9.011719c31.039063-4.511719 57.867188-24.003906 71.75-52.128906l27.734375-56.199219c16.316406-33.0625 63.464844-33.0625 79.78125 0zm0 0" fill="#f9ee80"/><path d="m291.363281 433.101562 55.472657 29.164063c32.632812 17.15625 70.773437-10.554687 64.542968-46.894531l-10.59375-61.769532c-5.304687-30.910156 4.945313-62.453124 27.402344-84.34375 0 0-124.636719-86.230468-209.269531 22.984376-47.402344 61.171874-32.949219 103.328124-38.265625 152.4375l22.027344-11.578126c27.757812-14.59375 60.921874-14.59375 88.683593 0zm0 0" fill="#eedb00"/><path d="m478.640625 393.679688c0 61.203124-49.613281 110.820312-110.820313 110.820312-61.203124 0-110.820312-49.617188-110.820312-110.820312 0-61.207032 49.617188-110.820313 110.820312-110.820313 61.207032 0 110.820313 49.613281 110.820313 110.820313zm0 0" fill="#5ad6ff"/><path d="m411.464844 373.054688h-23.019532v-23.019532c0-11.390625-9.234374-20.625-20.625-20.625-11.390624 0-20.625 9.234375-20.625 20.625v23.019532h-23.019531c-11.390625 0-20.625 9.234374-20.625 20.625 0 11.390624 9.234375 20.621093 20.625 20.621093h23.019531v23.023438c0 11.390625 9.234376 20.625 20.625 20.625 11.390626 0 20.625-9.234375 20.625-20.625v-23.023438h23.019532c11.390625 0 20.625-9.230469 20.625-20.621093 0-11.390626-9.234375-20.625-20.625-20.625zm0 0" fill="#fffcdc"/><path d="m247.019531 265.328125c-15.519531 0-28.101562-12.582031-28.101562-28.101563v-20.429687c0-4.234375 3.4375-7.667969 7.671875-7.667969h40.859375c4.238281 0 7.671875 3.433594 7.671875 7.667969v20.429687c-.003906 15.519532-12.582032 28.101563-28.101563 28.101563zm0 0" fill="#454545"/><path d="m182.996094 237.226562c0-13.179687-13.417969-23.867187-29.972656-23.867187-16.554688 0-29.972657 10.6875-29.972657 23.867187 0 13.183594 13.417969 23.871094 29.972657 23.871094 16.554687 0 29.972656-10.6875 29.972656-23.871094zm0 0" fill="#ff83b4"/><path d="m370.988281 237.226562c0-13.179687-13.417969-23.867187-29.972656-23.867187s-29.972656 10.6875-29.972656 23.867187c0 13.183594 13.417969 23.871094 29.972656 23.871094s29.972656-10.6875 29.972656-23.871094zm0 0" fill="#ff83b4"/><path d="m335.175781 216.625v-12.449219c0-4.144531-3.355469-7.5-7.5-7.5-4.140625 0-7.5 3.355469-7.5 7.5v12.449219c0 4.140625 3.359375 7.5 7.5 7.5 4.144531 0 7.5-3.359375 7.5-7.5zm0 0"/><path d="m173.863281 216.625v-12.449219c0-4.144531-3.359375-7.5-7.5-7.5-4.144531 0-7.5 3.355469-7.5 7.5v12.449219c0 4.140625 3.355469 7.5 7.5 7.5 4.140625 0 7.5-3.359375 7.5-7.5zm0 0"/><path d="m470.488281 351.210938c-3.925781 1.320312-6.035156 5.574218-4.714843 9.5 3.5625 10.589843 5.367187 21.683593 5.367187 32.96875 0 56.96875-46.351563 103.320312-103.320313 103.320312-56.972656 0-103.320312-46.351562-103.320312-103.320312 0-56.972657 46.351562-103.320313 103.320312-103.320313 33.9375 0 65.738282 16.691406 85.058594 44.652344 2.355469 3.40625 7.027344 4.261719 10.4375 1.902343 3.40625-2.351562 4.257813-7.023437 1.90625-10.433593-11.261718-16.289063-26.226562-29.230469-43.328125-38.023438 19.835938-27.359375 56.410157-57.574219 56.410157-57.574219 14.273437-13.914062 19.3125-34.332031 13.152343-53.289062-6.15625-18.957031-22.238281-32.515625-41.964843-35.378906l-62.019532-9.011719c-28.601562-4.15625-53.308594-22.109375-66.101562-48.023437l-27.734375-56.203126c-8.820313-17.871093-26.683594-28.976562-46.617188-28.976562-19.933593 0-37.792969 11.105469-46.617187 28.976562l-27.734375 56.203126c-12.789063 25.914062-37.5 43.867187-66.101563 48.023437l-18.464844 2.683594c-4.101562.59375-6.941406 4.398437-6.34375 8.5.59375 4.101562 4.410157 6.9375 8.5 6.34375l18.464844-2.683594c33.488282-4.867187 62.421875-25.886719 77.394532-56.230469l27.738281-56.199218c6.371093-12.910157 18.769531-20.617188 33.164062-20.617188s26.792969 7.707031 33.164063 20.617188l27.738281 56.199218c14.976563 30.34375 43.90625 51.363282 77.394531 56.230469l62.019532 9.011719c14.246093 2.070312 25.40625 11.476562 29.855468 25.167968 4.449219 13.691407.949219 27.867188-9.359375 37.914063 0 0-41.390625 35.855469-59.882812 62.246094-12.707031-4.582031-26.257813-7.03125-40.128907-7.03125-65.242187 0-118.320312 53.082031-118.320312 118.324219 0 7.191406.648438 14.234374 1.882812 21.078124-18.109374-.792968-35.972656 3.175782-52.195312 11.703126l-55.472656 29.164062c-12.738282 6.699219-27.300782 5.648438-38.949219-2.8125-11.644531-8.460938-17.144531-21.984375-14.710937-36.171875l10.59375-61.773437c5.71875-33.347657-5.332032-67.359376-29.5625-90.980469l-44.878907-43.746094c-10.308593-10.046875-13.808593-24.21875-9.359375-37.910156 4.449219-13.691407 15.609375-23.101563 29.855469-25.171875l12.320313-1.789063c4.101562-.597656 6.9375-4.402343 6.34375-8.503906-.59375-4.097656-4.410157-6.941406-8.5-6.339844l-12.320313 1.789063c-19.726563 2.863281-35.804687 16.421875-41.964844 35.378906-6.15625 18.957031-1.117187 39.375 13.15625 53.289062l44.878907 43.746094c20.691406 20.171875 30.132812 49.222656 25.246093 77.707032l-10.59375 61.765624c-3.371093 19.648438 4.554688 39.128907 20.679688 50.84375 9.113281 6.621094 19.773437 9.984376 30.507812 9.984376 8.261719 0 16.566407-1.992188 24.238281-6.027344l55.472657-29.164063c15.191406-7.984375 32.070312-11.300781 49.058593-9.691406 15.378907 47.503906 60.035157 81.953125 112.59375 81.953125 65.242188 0 118.320313-53.078125 118.320313-118.320312 0-12.914063-2.070313-25.617188-6.152344-37.75-1.320312-3.925782-5.574219-6.039063-9.5-4.71875zm0 0"/><path d="m367.820312 465.449219c15.507813 0 28.125-12.617188 28.125-28.125v-15.519531h15.519532c15.507812 0 28.125-12.617188 28.125-28.125 0-15.507813-12.617188-28.125-28.125-28.125h-15.519532v-15.519532c0-15.507812-12.617187-28.125-28.125-28.125-15.507812 0-28.125 12.617188-28.125 28.125v15.519532h-15.519531c-15.507812 0-28.121093 12.617187-28.121093 28.125 0 15.507812 12.613281 28.125 28.121093 28.125h15.519531v15.519531c0 15.507812 12.617188 28.125 28.125 28.125zm-43.644531-58.644531c-7.238281 0-13.125-5.890626-13.125-13.125 0-7.238282 5.886719-13.125 13.125-13.125h23.019531c4.144532 0 7.5-3.359376 7.5-7.5v-23.019532c0-7.238281 5.886719-13.125 13.125-13.125 7.234376 0 13.121094 5.886719 13.121094 13.125v23.019532c0 4.140624 3.359375 7.5 7.5 7.5h23.023438c7.234375 0 13.125 5.886718 13.125 13.125 0 7.234374-5.890625 13.125-13.125 13.125h-23.023438c-4.140625 0-7.5 3.355468-7.5 7.5v23.019531c0 7.234375-5.886718 13.125-13.121094 13.125-7.238281 0-13.125-5.886719-13.125-13.125v-23.019531c0-4.144532-3.355468-7.5-7.5-7.5zm0 0"/><path d="m282.621094 237.230469v-20.429688c0-8.367187-6.804688-15.171875-15.171875-15.171875h-40.859375c-8.363282 0-15.171875 6.804688-15.171875 15.171875v20.429688c0 19.628906 15.972656 35.597656 35.601562 35.597656 19.628907 0 35.601563-15.96875 35.601563-35.597656zm-56.203125 0v-20.429688c0-.097656 41.203125-.097656 41.203125 0v20.429688c-.003906 11.359375-9.242188 20.597656-20.601563 20.597656s-20.601562-9.242187-20.601562-20.597656zm0 0"/></svg>